<svg version="1.1" id="Layer_1" xmlns="http://www.w3.org/2000/svg" xmlns:xlink="http://www.w3.org/1999/xlink" x="0px" y="0px"
	 width="100%" viewBox="0 0 1024 1024" enable-background="new 0 0 1024 1024" xml:space="preserve">
<path fill="#000000" opacity="1.000000" stroke="none" 
	d="
M475.000000,1025.000000 
	C316.666656,1025.000000 158.833328,1025.000000 1.000000,1025.000000 
	C1.000000,683.666687 1.000000,342.333344 1.000000,1.000000 
	C342.333344,1.000000 683.666687,1.000000 1025.000000,1.000000 
	C1025.000000,342.333344 1025.000000,683.666687 1025.000000,1025.000000 
	C841.833313,1025.000000 658.666687,1025.000000 475.000000,1025.000000 
M492.999268,604.000183 
	C492.999268,604.000183 493.051575,604.056885 493.613159,604.012329 
	C493.760712,603.692383 493.908264,603.372437 494.000000,603.000000 
	C494.000000,603.000000 494.052338,603.055786 494.611633,603.007324 
	C494.759857,602.688477 494.908051,602.369568 495.000366,602.000000 
	C495.000366,602.000000 495.050232,602.056335 495.607727,602.002808 
	C495.757355,601.684937 495.906982,601.367004 496.000000,601.000000 
	C496.000000,601.000000 496.048981,601.056580 496.604828,600.999756 
	C496.755463,600.682800 496.906097,600.365845 497.000000,600.000000 
	C497.000000,600.000000 497.048828,600.056763 497.605042,600.000061 
	C497.755707,599.682800 497.906342,599.365601 498.000000,599.000000 
	C498.000000,599.000000 498.048492,599.057068 498.605713,599.001892 
	C498.756134,598.684204 498.906555,598.366516 499.000000,598.000000 
	C499.000000,598.000000 499.048737,598.057068 499.606293,598.002258 
	C499.756622,597.684326 499.906982,597.366394 500.000061,597.000000 
	C500.000061,597.000000 500.048340,597.057373 500.605408,597.001892 
	C500.756012,596.684326 500.906616,596.366699 501.000000,596.000000 
	C501.000000,596.000000 501.049042,596.057312 501.605469,596.001648 
	C501.755920,595.684509 501.906403,595.367371 502.000000,595.000000 
	C502.000000,595.000000 502.050110,595.056885 502.605499,595.001709 
	C502.755707,594.685181 502.905914,594.368591 503.000000,594.000000 
	C503.000000,594.000000 503.052155,594.056396 503.610748,594.008423 
	C503.759094,593.690186 503.907440,593.372009 504.013245,592.998962 
	C504.013245,592.998962 504.070282,593.039612 504.713928,592.913025 
	C504.774811,592.287659 504.835663,591.662354 505.534210,590.797852 
	C510.848969,585.903809 516.247009,581.095215 521.418762,576.054382 
	C522.679626,574.825439 523.197632,572.834290 524.738281,571.162720 
	C531.787048,577.633240 539.079285,583.860657 545.833496,590.625305 
	C559.509216,604.322205 572.950439,618.255188 586.377747,632.197388 
	C595.334045,641.497131 603.561035,643.729919 611.815613,640.163879 
	C621.597717,635.937866 626.205261,627.067810 622.997620,617.235413 
	C622.178772,615.497253 621.732544,613.405273 620.476440,612.082336 
	C615.058472,606.376221 609.400879,600.897705 603.834534,595.332336 
	C536.244446,527.753906 468.659149,460.170593 401.057587,392.603607 
	C395.452087,387.000977 389.737488,381.507507 383.722992,375.311188 
	C377.134186,369.000000 361.887024,371.609222 356.990631,379.885803 
	C352.453400,387.555420 353.055328,397.769196 358.226624,402.916748 
	C373.203461,417.824707 388.098206,432.815308 403.112122,447.685669 
	C408.530243,453.051910 414.371033,457.996277 419.710205,463.436188 
	C429.923920,473.842590 439.916412,484.466095 449.737946,495.612823 
	C441.865601,503.181458 433.887482,510.643677 426.142426,518.340454 
	C408.947235,535.428467 391.912231,552.677673 374.714935,569.763611 
	C369.920074,574.527344 364.613922,578.778870 359.852814,583.573730 
	C354.342926,589.122742 351.995026,598.665527 355.854797,605.793457 
	C359.474854,612.478638 367.761719,618.200378 375.196106,616.852661 
	C380.011993,615.979614 384.446503,613.002747 389.665649,611.272278 
	C395.488312,625.368042 414.861420,626.887817 424.709137,615.997925 
	C425.847198,614.739441 427.536255,613.979309 428.664734,613.708862 
	C428.447266,617.697266 427.816040,621.714722 428.094391,625.668213 
	C428.771088,635.279602 440.566223,643.763367 449.931458,641.479065 
	C462.069244,638.518433 469.069031,629.193787 476.640503,619.790283 
	C477.163971,619.526733 477.687439,619.263123 478.713959,618.891724 
	C479.145111,618.376282 479.576263,617.860901 480.549042,617.068665 
	C480.719604,616.725769 480.890137,616.382935 480.997040,616.007141 
	C480.997040,616.007141 481.047943,616.058105 481.608734,616.009460 
	C481.758118,615.690063 481.907471,615.370667 481.997559,615.004883 
	C481.997559,615.004883 482.053314,615.058533 482.786530,615.104431 
	C483.210327,614.421082 483.634125,613.737793 484.004456,612.997559 
	C484.004456,612.997559 484.052216,613.056396 484.610931,613.007629 
	C484.759369,612.689209 484.907806,612.370789 485.000000,612.000000 
	C485.000000,612.000000 485.052185,612.056396 485.611389,612.008728 
	C485.759491,611.690063 485.907593,611.371399 486.000000,611.000000 
	C486.000000,611.000000 486.052704,611.055725 486.611938,611.009094 
	C486.759766,610.690430 486.907593,610.371765 487.000000,610.000000 
	C487.000000,610.000000 487.052917,610.055542 487.612305,610.009399 
	C487.759979,609.690674 487.907654,609.371948 488.000000,609.000000 
	C488.000000,609.000000 488.053284,609.055359 488.612427,609.010254 
	C488.759857,608.691772 488.907288,608.373352 489.000000,608.000000 
	C489.000000,608.000000 489.054779,608.054810 489.613739,608.010742 
	C489.760803,607.692383 489.907867,607.373962 490.000000,607.000000 
	C490.000000,607.000000 490.055542,607.054993 490.614777,607.011353 
	C490.761566,606.692749 490.908356,606.374207 491.000000,606.000000 
	C491.000000,606.000000 491.055542,606.055176 491.616302,606.010620 
	C491.763306,605.690857 491.910309,605.371033 492.001221,605.000000 
	C492.001221,605.000000 492.050537,605.057190 492.603302,604.996765 
	C492.754456,604.681519 492.905579,604.366211 492.999268,604.000183 
M601.105896,548.537537 
	C601.388733,548.715027 601.671570,548.892578 601.962769,548.994324 
	C601.962769,548.994324 601.930603,549.064636 602.141907,549.613159 
	C602.730225,550.106384 603.318481,550.599548 604.000000,551.003662 
	C604.000000,551.003662 603.912292,551.099060 604.190369,551.701477 
	C608.055115,555.338196 612.038025,558.858215 615.764038,562.631836 
	C631.518982,578.588074 646.988220,594.833069 662.989502,610.536743 
	C671.382812,618.773987 681.185242,619.717712 690.250427,612.647400 
	C693.704407,609.953491 697.706726,606.520447 696.330444,600.240967 
	C696.014709,596.779419 695.698975,593.317810 694.912109,589.350891 
	C692.852844,586.989746 690.941650,584.477112 688.708069,582.294373 
	C680.247192,574.026123 671.587219,565.960327 663.177917,557.640686 
	C650.805664,545.400208 638.645203,532.945679 626.272339,520.705811 
	C620.397888,514.894470 614.057373,509.550598 608.243042,503.682770 
	C577.224121,472.378296 546.324524,440.955658 515.338379,409.618591 
	C506.555603,400.736298 497.527924,392.095367 488.783112,383.176514 
	C480.552002,374.781555 472.678833,366.032990 464.363220,357.725220 
	C461.714600,355.079102 458.153137,353.346710 454.380951,350.826508 
	C450.257843,350.265350 446.134766,349.704193 441.329468,349.306000 
	C433.515137,351.867615 427.708008,359.066315 427.811981,368.237579 
	C427.901306,376.115692 432.296936,380.680145 437.033661,385.401459 
	C443.783051,392.128784 450.938721,398.448944 457.677551,405.186340 
	C465.969696,413.476776 473.931274,422.097015 482.179932,430.431976 
	C495.785645,444.180145 509.453766,457.867615 523.192444,471.482880 
	C542.363770,490.481842 561.618835,509.396393 580.851379,528.333557 
	C584.516174,531.942078 588.242676,535.488037 592.000000,539.000000 
	C592.000000,539.000000 591.936646,539.059265 592.180786,539.628296 
	C593.093445,540.444519 594.006165,541.260681 594.990601,542.062988 
	C594.990601,542.062988 594.921509,542.055786 595.091187,542.543518 
	C595.375244,542.722412 595.659363,542.901245 595.995850,543.006775 
	C595.995850,543.006775 595.920410,543.056091 596.096130,543.554993 
	C596.377014,543.759644 596.657959,543.964294 597.101440,544.574158 
	C597.271545,544.826782 597.502869,544.995544 598.026550,545.562622 
	C598.325928,545.737488 598.625305,545.912292 598.966370,545.991699 
	C598.966370,545.991699 598.909363,546.082275 599.062927,546.577209 
	C599.351440,546.747620 599.639893,546.918030 600.000183,547.006958 
	C600.000183,547.006958 599.914124,547.072815 600.078796,547.564026 
	C600.366882,547.736145 600.655029,547.908264 600.998901,548.008362 
	C600.998901,548.008362 600.922852,548.058350 601.105896,548.537537 
M544.468262,400.115570 
	C544.179993,400.309113 544.003113,400.576385 543.892334,400.901276 
	C543.892334,400.901276 543.847534,400.883484 543.259460,401.191071 
	C539.348450,405.329224 535.437439,409.467346 532.369019,412.713989 
	C541.804260,422.709564 550.440735,431.858917 559.084045,441.715942 
	C561.071594,443.773468 563.048950,445.840973 565.048767,447.886536 
	C570.027710,452.979492 575.016846,458.062408 580.272339,463.741699 
	C589.471619,472.675812 598.670837,481.609924 607.992065,490.662506 
	C610.272522,487.699036 611.671753,485.880768 613.651672,483.741058 
	C620.515930,476.704590 627.380188,469.668121 634.908020,462.381958 
	C643.357483,453.981049 651.807007,445.580139 660.782715,436.961060 
	C661.136658,436.313354 661.490540,435.665649 662.097839,434.506500 
	C662.411255,434.036102 662.724670,433.565735 663.758118,433.071777 
	C674.217773,422.562561 685.117676,412.443604 694.935852,401.365814 
	C699.302124,396.439331 698.861877,389.323242 696.133362,383.137390 
	C690.609619,370.614624 675.040527,367.715454 665.272522,377.210846 
	C664.573303,377.890594 663.722839,378.414795 662.305603,378.676208 
	C661.058777,376.093933 660.082581,373.332947 658.516602,370.961426 
	C652.772888,362.263275 635.895203,362.966522 628.510315,370.823608 
	C626.828918,372.612488 624.864563,374.135345 623.085999,374.967224 
	C624.976013,366.524933 624.870117,358.843750 617.310425,352.570465 
	C611.253479,347.544281 598.079529,347.382904 592.463318,353.009613 
	C590.720459,354.755646 588.820190,356.344543 586.292053,358.143158 
	C580.845337,364.070160 575.398621,369.997131 569.347046,376.224213 
	C562.512329,382.804108 555.677612,389.384033 548.330200,396.250488 
	C547.531067,397.122833 546.731995,397.995178 545.478638,399.093750 
	C545.298523,399.371918 545.118347,399.650085 544.989441,400.000977 
	C544.989441,400.000977 544.925903,399.937256 544.468262,400.115570 
M463.012390,725.000000 
	C464.330170,724.522156 466.149811,724.434875 466.878540,723.498535 
	C469.952026,719.549561 472.700256,715.347351 475.622284,711.159302 
	C478.600800,715.674927 481.600708,720.223022 484.604218,724.776611 
	C489.586548,724.776611 494.679321,724.776611 500.554810,724.776611 
	C495.546295,717.187744 490.832245,710.133240 486.245819,702.996643 
	C485.591827,701.979004 484.874634,700.117981 485.342163,699.403198 
	C489.145752,693.588623 493.247498,687.969971 497.200348,682.251526 
	C497.994598,681.102417 498.541260,679.782288 499.096771,678.738892 
	C487.015900,675.343994 479.557129,679.817139 475.796204,692.461975 
	C470.945282,680.703369 464.233765,674.507690 451.583038,679.003601 
	C456.534119,686.237732 461.504547,693.500122 466.544891,700.864685 
	C461.625885,708.029053 456.601837,715.346497 451.516479,722.753174 
	C450.983582,721.142273 450.544281,719.688171 450.024536,718.263428 
	C446.368805,708.242126 442.537964,698.281311 439.073975,688.194458 
	C435.591705,678.054138 435.749420,678.000000 425.116455,678.000000 
	C422.804810,678.000000 420.493164,678.000000 418.370209,678.000000 
	C412.587524,693.679504 406.936859,709.000977 401.100372,724.826294 
	C406.813385,724.826294 411.264862,724.826294 415.686646,724.826294 
	C416.994659,716.987976 418.129700,716.000061 425.656525,716.000000 
	C428.645660,715.999939 431.634766,716.000000 434.464508,716.000000 
	C435.335724,717.664734 436.605652,719.048401 436.731720,720.529541 
	C437.096680,724.817688 439.645203,725.165588 443.116669,725.056458 
	C449.439301,724.857666 455.772675,725.000000 463.012390,725.000000 
M376.448395,685.944458 
	C374.606537,689.840271 372.764709,693.736023 370.506104,698.513245 
	C365.140350,692.819763 365.125092,684.270081 360.371918,678.231628 
	C354.847351,678.231628 349.085205,678.231628 343.210693,678.231628 
	C343.210693,693.853027 343.210693,709.242126 343.210693,724.793152 
	C347.489471,724.793152 351.556335,724.793152 355.960754,724.793152 
	C355.960754,714.895447 355.960754,705.196350 355.960754,694.278015 
	C358.626129,701.004883 360.617523,706.657959 363.152679,712.055664 
	C363.937775,713.727234 366.264526,715.839905 367.773621,715.755249 
	C370.610565,715.596252 374.687073,718.470581 376.226440,712.805664 
	C377.433319,708.364258 380.025299,704.299316 382.001953,700.067078 
	C382.276764,700.067078 382.551575,700.067078 382.826385,700.067078 
	C382.826385,708.314575 382.826385,716.562073 382.826385,724.651489 
	C383.886658,724.861084 384.197876,724.969910 384.511658,724.977844 
	C397.999969,725.317749 398.000000,725.316711 398.000000,711.975952 
	C398.000000,700.725952 398.000000,689.475952 398.000000,678.481079 
	C397.299591,678.172180 397.157654,678.055542 397.014893,678.054565 
	C393.354309,678.028992 389.693665,678.005737 386.033020,678.002136 
	C378.855408,677.995056 378.855408,678.000000 376.448395,685.944458 
M676.000977,685.504456 
	C672.190125,675.425781 663.789673,678.105042 654.992981,678.134338 
	C660.477295,686.161316 665.446350,693.434143 670.451660,700.759949 
	C665.432190,708.318359 660.244385,716.130066 654.354187,724.999634 
	C660.047302,724.999634 663.875610,725.201843 667.662659,724.894836 
	C669.074280,724.780457 670.818237,723.796265 671.669739,722.655579 
	C674.436584,718.949097 676.860718,714.986755 679.511597,710.979553 
	C682.246155,715.114563 684.758606,719.038574 687.425354,722.854736 
	C688.054932,723.755737 689.177002,724.859680 690.117554,724.903564 
	C694.680237,725.116028 699.258240,724.999329 704.106323,724.999329 
	C703.814941,723.946960 703.800720,723.427979 703.553040,723.070984 
	C699.362183,717.030518 695.012390,711.094482 691.016235,704.928894 
	C689.959961,703.299133 689.011719,700.528137 689.693176,699.061279 
	C691.216736,695.781372 693.848022,693.027283 695.934509,689.994629 
	C698.483826,686.289307 700.937378,682.518127 703.367188,678.873108 
	C691.111206,675.191162 683.609253,679.766541 679.978149,691.649292 
	C678.509460,689.253296 677.520081,687.639282 676.000977,685.504456 
M561.139404,678.988281 
	C550.508789,678.514038 539.878174,678.039734 529.258179,677.565979 
	C529.258179,693.957642 529.258179,709.342834 529.258179,724.747681 
	C534.253601,724.747681 538.986877,724.747681 544.102112,724.747681 
	C544.102112,719.431091 544.102112,714.354248 544.102112,709.000000 
	C548.614685,709.000000 552.742065,709.054626 556.867432,708.985291 
	C561.347900,708.910034 567.619446,704.341125 568.875854,700.349304 
	C571.785767,691.104553 569.884705,685.235168 561.139404,678.988281 
M631.503113,725.000000 
	C638.275879,725.000000 645.048645,725.000000 652.000000,725.000000 
	C652.000000,723.468506 651.995850,722.488770 652.000671,721.508972 
	C652.032776,715.001526 652.033386,715.001099 645.465454,715.000183 
	C640.367676,714.999451 635.269897,715.000000 630.298340,715.000000 
	C630.298340,711.331116 630.298340,708.256226 630.298340,704.806274 
	C636.672913,704.806274 642.752319,704.806274 648.700684,704.806274 
	C648.700684,701.329346 648.700684,698.254456 648.700684,694.811523 
	C642.319580,694.811523 636.230896,694.811523 630.294434,694.811523 
	C630.294434,692.347229 630.294434,690.277405 630.294434,687.818359 
	C636.997131,687.818359 643.410095,687.818359 649.705200,687.818359 
	C649.705200,684.338013 649.705200,681.263367 649.705200,678.292969 
	C638.338989,678.292969 627.269958,678.292969 616.288818,678.292969 
	C616.288818,693.987915 616.288818,709.388306 616.288818,725.000000 
	C621.218750,725.000000 625.861694,725.000000 631.503113,725.000000 
M591.502747,725.000000 
	C596.831421,725.000000 602.173523,724.768005 607.484436,725.074951 
	C611.561096,725.310486 612.071472,723.359070 612.093201,719.972168 
	C612.115356,716.506592 611.430359,714.716187 607.427979,714.923950 
	C601.686584,715.222046 595.918213,715.000000 589.789429,715.000000 
	C589.789429,702.317810 589.789429,690.247192 589.789429,678.300476 
	C584.991516,678.300476 580.587341,678.300476 576.290466,678.300476 
	C576.290466,693.999084 576.290466,709.395691 576.290466,725.000000 
	C581.221008,725.000000 585.862732,725.000000 591.502747,725.000000 
M724.000000,711.492065 
	C724.000000,700.397156 724.000000,689.302307 724.000000,678.289612 
	C718.681152,678.289612 713.942383,678.289612 709.287415,678.289612 
	C709.287415,693.983337 709.287415,709.385803 709.287415,724.709900 
	C714.319824,724.709900 719.058594,724.709900 724.000000,724.709900 
	C724.000000,720.444031 724.000000,716.466553 724.000000,711.492065 
M505.000000,698.500183 
	C505.000000,707.263489 505.000000,716.026733 505.000000,724.712585 
	C510.313019,724.712585 515.051270,724.712585 519.715149,724.712585 
	C519.715149,709.021362 519.715149,693.619202 519.715149,678.287354 
	C514.687073,678.287354 509.948792,678.287354 505.000000,678.287354 
	C505.000000,684.882202 505.000000,691.191284 505.000000,698.500183 
z"/>
<path fill="#25455C" opacity="1.000000" stroke="none" 
	d="
M384.073578,375.963318 
	C389.737488,381.507507 395.452087,387.000977 401.057587,392.603607 
	C468.659149,460.170593 536.244446,527.753906 603.834534,595.332336 
	C609.400879,600.897705 615.058472,606.376221 620.476440,612.082336 
	C621.732544,613.405273 622.178772,615.497253 622.730103,617.812561 
	C621.673157,619.208008 621.025513,620.292175 620.071167,620.801331 
	C614.230713,623.916504 608.494141,623.864685 603.625305,619.052246 
	C599.157471,614.636230 592.022034,614.065613 588.696289,607.812927 
	C587.318420,605.222534 584.223206,602.907471 581.393433,601.860596 
	C575.544312,599.696655 571.757812,595.869751 568.688599,590.651428 
	C567.292908,588.278442 564.674683,586.599976 562.530701,584.696960 
	C558.855774,581.434875 554.640686,578.647034 551.506592,574.938171 
	C545.166565,567.435486 538.765198,560.379272 528.430298,558.577942 
	C527.269775,558.375671 525.708496,557.369690 525.317749,556.356628 
	C522.774475,549.763000 516.745483,548.188049 511.118011,545.834900 
	C508.737976,544.839661 505.679230,543.604248 504.682312,541.604126 
	C503.210327,538.650879 501.236023,539.065430 498.998840,538.593872 
	C499.252136,535.444580 498.737122,533.424927 495.518921,532.575806 
	C493.918549,532.153625 492.299438,530.750977 491.287201,529.357239 
	C488.709747,525.808411 486.584869,521.931702 484.023743,518.369629 
	C483.244690,517.286133 481.636353,516.796814 480.404114,516.041443 
	C475.538635,513.058594 470.663269,510.091705 465.822723,507.069000 
	C465.464386,506.845245 465.360138,506.221863 465.126312,505.790466 
	C460.694305,497.613708 456.457153,489.322937 451.765076,481.298218 
	C448.018188,474.890076 440.181091,471.102325 439.700134,462.419891 
	C439.664459,461.776184 436.079803,460.488434 434.541992,460.918732 
	C428.855835,462.509796 425.719116,460.158722 424.843414,454.281860 
	C424.230438,450.168091 422.674866,445.974884 420.606598,442.349884 
	C417.577087,437.040192 412.698120,432.621460 410.433014,427.077148 
	C406.746643,418.054169 401.317688,410.500397 394.921661,403.419922 
	C391.627777,399.773590 388.426697,396.040039 385.046722,392.475800 
	C381.762604,389.012604 378.071533,385.906403 375.050964,382.238464 
	C374.037903,381.008270 373.893921,378.247406 374.568237,376.724365 
	C375.030548,375.680176 377.569763,375.246429 379.222961,375.127167 
	C380.811462,375.012543 382.454498,375.654053 384.073578,375.963318 
z"/>
<path fill="#173548" opacity="1.000000" stroke="none" 
	d="
M389.051941,610.968628 
	C384.446503,613.002747 380.011993,615.979614 375.196106,616.852661 
	C367.761719,618.200378 359.474854,612.478638 355.854797,605.793457 
	C351.995026,598.665527 354.342926,589.122742 359.852814,583.573730 
	C364.613922,578.778870 369.920074,574.527344 374.714935,569.763611 
	C391.912231,552.677673 408.947235,535.428467 426.142426,518.340454 
	C433.887482,510.643677 441.865601,503.181458 450.214935,495.338379 
	C459.060150,503.617371 467.434174,512.165161 475.771729,520.748413 
	C476.058502,521.043640 475.979553,521.694153 475.907654,522.459839 
	C472.431335,526.213074 469.189148,529.756470 465.793030,533.145630 
	C452.183502,546.727173 438.526215,560.260864 424.592224,573.975586 
	C412.537842,585.733459 400.769165,597.319336 389.061707,608.966675 
	C388.726410,609.300232 389.040588,610.286621 389.051941,610.968628 
z"/>
<path fill="#305269" opacity="1.000000" stroke="none" 
	d="
M455.009338,351.196228 
	C458.153137,353.346710 461.714600,355.079102 464.363220,357.725220 
	C472.678833,366.032990 480.552002,374.781555 488.783112,383.176514 
	C497.527924,392.095367 506.555603,400.736298 515.338379,409.618591 
	C546.324524,440.955658 577.224121,472.378296 608.243042,503.682770 
	C614.057373,509.550598 620.397888,514.894470 626.272339,520.705811 
	C638.645203,532.945679 650.805664,545.400208 663.177917,557.640686 
	C671.587219,565.960327 680.247192,574.026123 688.708069,582.294373 
	C690.941650,584.477112 692.852844,586.989746 694.772461,589.752075 
	C692.931885,590.108704 690.815674,590.703552 689.598938,589.913391 
	C682.843079,585.525879 676.203735,580.939575 669.729004,576.145081 
	C665.345947,572.899475 661.577637,568.772156 657.030579,565.813293 
	C651.670898,562.325562 645.761780,559.728638 641.773560,554.375793 
	C640.834167,553.114990 639.261230,551.795349 637.802979,551.549072 
	C632.963684,550.731689 630.598694,547.235596 628.110474,543.679626 
	C626.882324,541.924316 625.681946,539.990417 624.021790,538.723267 
	C615.521423,532.235291 606.866333,525.950317 598.295532,519.553894 
	C597.520020,518.975098 596.615967,518.213867 596.353821,517.358948 
	C594.513977,511.358063 590.061584,508.103455 584.826172,505.234619 
	C582.180664,503.784973 580.036804,501.228729 578.020691,498.869843 
	C575.480957,495.898346 573.569458,492.369110 570.913391,489.522339 
	C565.726196,483.962708 560.274170,478.643982 554.812073,473.348938 
	C549.605591,468.301636 544.152527,463.506927 538.992615,458.414032 
	C536.203796,455.661469 533.917603,452.405975 531.201050,449.572662 
	C524.897217,442.997955 515.500916,439.316193 512.627380,429.496277 
	C512.291992,428.350250 510.949768,427.474487 510.014771,426.532562 
	C506.213318,422.702850 502.443848,418.838745 498.552734,415.101654 
	C496.047119,412.695221 493.403961,410.423004 490.725372,408.208038 
	C487.537659,405.572052 484.177002,403.143829 481.011993,400.482025 
	C470.821564,391.911896 463.299316,381.374390 457.590698,369.360016 
	C454.779633,363.443787 454.119019,357.499115 455.009338,351.196228 
z"/>
<path fill="#2A4A61" opacity="1.000000" stroke="none" 
	d="
M454.695129,351.011353 
	C454.119019,357.499115 454.779633,363.443787 457.590698,369.360016 
	C463.299316,381.374390 470.821564,391.911896 481.011993,400.482025 
	C484.177002,403.143829 487.537659,405.572052 490.725372,408.208038 
	C493.403961,410.423004 496.047119,412.695221 498.552734,415.101654 
	C502.443848,418.838745 506.213318,422.702850 510.014771,426.532562 
	C510.949768,427.474487 512.291992,428.350250 512.627380,429.496277 
	C515.500916,439.316193 524.897217,442.997955 531.201050,449.572662 
	C533.917603,452.405975 536.203796,455.661469 538.992615,458.414032 
	C544.152527,463.506927 549.605591,468.301636 554.812073,473.348938 
	C560.274170,478.643982 565.726196,483.962708 570.913391,489.522339 
	C573.569458,492.369110 575.480957,495.898346 578.020691,498.869843 
	C580.036804,501.228729 582.180664,503.784973 584.826172,505.234619 
	C590.061584,508.103455 594.513977,511.358063 596.353821,517.358948 
	C596.615967,518.213867 597.520020,518.975098 598.295532,519.553894 
	C606.866333,525.950317 615.521423,532.235291 624.021790,538.723267 
	C625.681946,539.990417 626.882324,541.924316 628.110474,543.679626 
	C630.598694,547.235596 632.963684,550.731689 637.802979,551.549072 
	C639.261230,551.795349 640.834167,553.114990 641.773560,554.375793 
	C645.761780,559.728638 651.670898,562.325562 657.030579,565.813293 
	C661.577637,568.772156 665.345947,572.899475 669.729004,576.145081 
	C676.203735,580.939575 682.843079,585.525879 689.598938,589.913391 
	C690.815674,590.703552 692.931885,590.108704 695.008057,590.004761 
	C695.698975,593.317810 696.014709,596.779419 696.067993,600.871216 
	C694.999573,602.915344 694.193542,604.329285 693.461731,605.613037 
	C688.051575,602.700989 682.837341,599.991150 677.728149,597.095886 
	C675.737427,595.967834 673.627930,594.720886 672.189758,593.009399 
	C668.283630,588.360840 664.751831,583.436035 658.093506,582.412354 
	C657.172180,582.270630 656.205139,581.087830 655.644470,580.155457 
	C652.014587,574.119019 645.758789,572.618042 639.685608,571.068176 
	C634.589355,569.767700 629.853699,568.075928 627.580322,562.985168 
	C625.717224,558.813232 621.726685,556.273865 616.974060,556.816223 
	C615.109192,557.029053 613.199646,556.850952 611.427795,556.850952 
	C611.200439,555.557678 611.067627,555.072876 611.036133,554.581726 
	C610.654114,548.618652 610.597900,548.586670 605.390503,550.921387 
	C604.958130,551.115295 604.407837,551.046082 603.912292,551.099060 
	C603.912292,551.099060 604.000000,551.003662 603.943115,550.712097 
	C603.234314,549.968567 602.582458,549.516602 601.930603,549.064636 
	C601.930603,549.064636 601.962769,548.994324 601.861938,548.796265 
	C601.481750,548.418274 601.202271,548.238281 600.922852,548.058350 
	C600.922852,548.058350 600.998901,548.008362 600.875854,547.808289 
	C600.473206,547.429749 600.193665,547.251282 599.914124,547.072815 
	C599.914124,547.072815 600.000183,547.006958 599.872559,546.811157 
	C599.466370,546.437622 599.187866,546.259949 598.909363,546.082275 
	C598.909363,546.082275 598.966370,545.991699 598.838989,545.792542 
	C598.406250,545.422363 598.100830,545.251343 597.795471,545.080383 
	C597.502869,544.995544 597.271545,544.826782 596.936890,544.116577 
	C596.488403,543.458069 596.204407,543.257080 595.920410,543.056091 
	C595.920410,543.056091 595.995850,543.006775 595.875854,542.805908 
	C595.477722,542.421936 595.199646,542.238831 594.921509,542.055786 
	C594.921509,542.055786 594.990601,542.062988 594.974854,541.688599 
	C593.951599,540.562561 592.944092,539.810913 591.936646,539.059265 
	C591.936646,539.059265 592.000000,539.000000 591.990356,538.638428 
	C590.726562,532.126953 586.810486,527.856812 582.160706,524.005798 
	C580.729797,522.820618 578.470886,520.208313 578.804443,519.699036 
	C581.779785,515.155823 577.731812,514.434814 575.380310,513.271973 
	C571.580261,511.392792 569.545227,508.526337 567.537659,504.799316 
	C565.350647,500.739258 561.810974,495.668182 557.939148,494.691254 
	C552.988037,493.441956 551.079041,490.156921 548.124756,487.323456 
	C546.479187,485.745117 544.626099,484.380890 542.846436,482.945038 
	C540.865479,481.346710 538.881042,479.751465 536.862488,478.201263 
	C534.748535,476.577850 532.592346,475.009552 530.454590,473.417145 
	C527.999573,471.373077 526.231384,468.116272 523.494324,466.497192 
	C518.541992,463.567627 516.524170,458.812500 515.245667,454.072235 
	C513.891724,449.052246 511.277588,445.977203 506.881256,443.791321 
	C504.008514,442.363037 500.373383,441.258911 498.701660,438.873138 
	C495.093872,433.724335 493.514221,427.217987 488.147888,423.151367 
	C487.465698,422.634399 487.499481,421.262939 486.946655,420.463684 
	C486.130920,419.284363 485.159607,418.187134 484.123230,417.191620 
	C482.272034,415.413452 480.188171,413.863525 478.437805,411.996735 
	C470.760254,403.808350 463.248779,395.463257 455.516754,387.327332 
	C449.831177,381.344818 445.793518,374.667572 442.606628,366.899536 
	C439.994019,360.531189 438.919128,355.197296 442.011658,349.143036 
	C446.134766,349.704193 450.257843,350.265350 454.695129,351.011353 
z"/>
<path fill="#173548" opacity="1.000000" stroke="none" 
	d="
M524.057190,571.193604 
	C523.197632,572.834290 522.679626,574.825439 521.418762,576.054382 
	C516.247009,581.095215 510.848969,585.903809 504.928345,591.088684 
	C504.238373,591.932861 504.154297,592.486267 504.070251,593.039612 
	C504.070282,593.039612 504.013245,592.998962 503.681152,592.910767 
	C503.250061,593.233826 503.151123,593.645081 503.052155,594.056396 
	C503.052155,594.056396 503.000000,594.000000 502.676514,593.914673 
	C502.252045,594.238586 502.151093,594.647705 502.050110,595.056885 
	C502.050110,595.056885 502.000000,595.000000 501.678223,594.916748 
	C501.253967,595.241455 501.151489,595.649353 501.049011,596.057312 
	C501.049042,596.057312 501.000000,596.000000 500.680359,595.920898 
	C500.256561,596.246948 500.152466,596.652161 500.048340,597.057373 
	C500.048340,597.057373 500.000061,597.000000 499.680786,596.924866 
	C499.257263,597.252197 499.152985,597.654602 499.048737,598.057068 
	C499.048737,598.057068 499.000000,598.000000 498.680481,597.924622 
	C498.256805,598.251831 498.152649,598.654480 498.048492,599.057068 
	C498.048492,599.057068 498.000000,599.000000 497.680115,598.925293 
	C497.256439,599.252625 497.152649,599.654724 497.048828,600.056763 
	C497.048828,600.056763 497.000000,600.000000 496.680725,599.923096 
	C496.257294,600.249634 496.153137,600.653076 496.048950,601.056580 
	C496.048981,601.056580 496.000000,601.000000 495.681274,600.924683 
	C495.258423,601.251648 495.154327,601.653992 495.050232,602.056335 
	C495.050232,602.056335 495.000366,602.000000 494.679871,601.922363 
	C494.257019,602.248352 494.154663,602.652100 494.052307,603.055786 
	C494.052338,603.055786 494.000000,603.000000 493.674988,602.920410 
	C493.250519,603.246155 493.151031,603.651489 493.051575,604.056885 
	C493.051575,604.056885 492.999268,604.000183 492.677612,603.919495 
	C492.254181,604.244934 492.152344,604.651062 492.050537,605.057190 
	C492.050537,605.057190 492.001221,605.000000 491.674500,604.910522 
	C491.250336,605.232422 491.152924,605.643799 491.055542,606.055176 
	C491.055542,606.055176 491.000000,606.000000 490.673492,605.909363 
	C490.249817,606.230835 490.152679,606.642883 490.055542,607.054993 
	C490.055542,607.054993 490.000000,607.000000 489.675415,606.910400 
	C489.252136,607.232117 489.153442,607.643494 489.054749,608.054810 
	C489.054779,608.054810 489.000000,608.000000 488.677643,607.915039 
	C488.254608,608.238525 488.153961,608.646973 488.053284,609.055359 
	C488.053284,609.055359 488.000000,609.000000 487.678894,608.921265 
	C487.256134,609.246826 487.154541,609.651184 487.052917,610.055542 
	C487.052917,610.055542 487.000000,610.000000 486.678345,609.920349 
	C486.255371,610.245728 486.154053,610.650696 486.052704,611.055725 
	C486.052704,611.055725 486.000000,611.000000 485.677795,610.920288 
	C485.254456,611.245850 485.153320,611.651123 485.052185,612.056396 
	C485.052185,612.056396 485.000000,612.000000 484.677734,611.918213 
	C484.254395,612.243042 484.153320,612.649719 484.052216,613.056396 
	C484.052216,613.056396 484.004456,612.997559 483.676788,612.887207 
	C482.917175,613.537476 482.485260,614.297974 482.053345,615.058533 
	C482.053314,615.058533 481.997559,615.004883 481.682037,614.925415 
	C481.260315,615.249939 481.154114,615.654053 481.047913,616.058105 
	C481.047943,616.058105 480.997040,616.007141 480.644287,615.985840 
	C480.196808,616.424927 480.102112,616.885193 480.007385,617.345520 
	C479.576263,617.860901 479.145111,618.376282 478.160675,618.975525 
	C477.087311,619.342590 476.567200,619.625854 476.047119,619.909119 
	C469.069031,629.193787 462.069244,638.518433 449.931458,641.479065 
	C440.566223,643.763367 428.771088,635.279602 428.094391,625.668213 
	C427.816040,621.714722 428.447266,617.697266 428.933167,613.027344 
	C430.267914,611.116577 431.268036,609.821716 432.411072,608.668457 
	C441.243286,599.757019 450.103210,590.872986 459.184509,581.887451 
	C459.702332,581.604858 459.900726,581.346497 460.251404,580.937012 
	C460.678040,580.579224 460.862976,580.303894 461.023987,580.014343 
	C461.000000,580.000122 461.029327,580.047729 461.259552,579.946533 
	C461.669647,579.570251 461.849518,579.295227 462.014709,579.010071 
	C462.000000,579.000000 462.020660,579.029297 462.253448,578.934631 
	C462.665619,578.564148 462.845001,578.288330 463.324036,577.869263 
	C475.038452,566.467163 486.453186,555.208374 498.221619,543.986816 
	C506.805908,551.972717 515.067627,559.889832 523.211060,567.926697 
	C523.898376,568.604980 523.793823,570.085693 524.057190,571.193604 
z"/>
<path fill="#203E52" opacity="1.000000" stroke="none" 
	d="
M476.071045,522.179077 
	C475.979553,521.694153 476.058502,521.043640 475.771729,520.748413 
	C467.434174,512.165161 459.060150,503.617371 450.346313,495.031738 
	C439.916412,484.466095 429.923920,473.842590 419.710205,463.436188 
	C414.371033,457.996277 408.530243,453.051910 403.112122,447.685669 
	C388.098206,432.815308 373.203461,417.824707 358.226624,402.916748 
	C353.055328,397.769196 352.453400,387.555420 356.990631,379.885803 
	C361.887024,371.609222 377.134186,369.000000 383.898285,375.637268 
	C382.454498,375.654053 380.811462,375.012543 379.222961,375.127167 
	C377.569763,375.246429 375.030548,375.680176 374.568237,376.724365 
	C373.893921,378.247406 374.037903,381.008270 375.050964,382.238464 
	C378.071533,385.906403 381.762604,389.012604 385.046722,392.475800 
	C388.426697,396.040039 391.627777,399.773590 394.921661,403.419922 
	C401.317688,410.500397 406.746643,418.054169 410.433014,427.077148 
	C412.698120,432.621460 417.577087,437.040192 420.606598,442.349884 
	C422.674866,445.974884 424.230438,450.168091 424.843414,454.281860 
	C425.719116,460.158722 428.855835,462.509796 434.541992,460.918732 
	C436.079803,460.488434 439.664459,461.776184 439.700134,462.419891 
	C440.181091,471.102325 448.018188,474.890076 451.765076,481.298218 
	C456.457153,489.322937 460.694305,497.613708 465.126312,505.790466 
	C465.360138,506.221863 465.464386,506.845245 465.822723,507.069000 
	C470.663269,510.091705 475.538635,513.058594 480.404114,516.041443 
	C481.636353,516.796814 483.244690,517.286133 484.023743,518.369629 
	C486.584869,521.931702 488.709747,525.808411 491.287201,529.357239 
	C492.299438,530.750977 493.918549,532.153625 495.518921,532.575806 
	C498.737122,533.424927 499.252136,535.444580 498.999451,538.592651 
	C499.000000,539.000000 499.001221,538.998352 498.664154,538.968750 
	C497.178894,539.055115 496.030731,539.171143 494.547485,539.185425 
	C489.626648,534.391663 485.095367,529.644287 480.417938,525.045532 
	C479.203522,523.851501 477.532379,523.121948 476.071045,522.179077 
z"/>
<path fill="#FFFFFF" opacity="1.000000" stroke="none" 
	d="
M462.556976,725.000000 
	C455.772675,725.000000 449.439301,724.857666 443.116669,725.056458 
	C439.645203,725.165588 437.096680,724.817688 436.731720,720.529541 
	C436.605652,719.048401 435.335724,717.664734 434.464508,716.000000 
	C431.634766,716.000000 428.645660,715.999939 425.656525,716.000000 
	C418.129700,716.000061 416.994659,716.987976 415.686646,724.826294 
	C411.264862,724.826294 406.813385,724.826294 401.100372,724.826294 
	C406.936859,709.000977 412.587524,693.679504 418.370209,678.000000 
	C420.493164,678.000000 422.804810,678.000000 425.116455,678.000000 
	C435.749420,678.000000 435.591705,678.054138 439.073975,688.194458 
	C442.537964,698.281311 446.368805,708.242126 450.024536,718.263428 
	C450.544281,719.688171 450.983582,721.142273 451.516479,722.753174 
	C456.601837,715.346497 461.625885,708.029053 466.544891,700.864685 
	C461.504547,693.500122 456.534119,686.237732 451.583038,679.003601 
	C464.233765,674.507690 470.945282,680.703369 475.796204,692.461975 
	C479.557129,679.817139 487.015900,675.343994 499.096771,678.738892 
	C498.541260,679.782288 497.994598,681.102417 497.200348,682.251526 
	C493.247498,687.969971 489.145752,693.588623 485.342163,699.403198 
	C484.874634,700.117981 485.591827,701.979004 486.245819,702.996643 
	C490.832245,710.133240 495.546295,717.187744 500.554810,724.776611 
	C494.679321,724.776611 489.586548,724.776611 484.604218,724.776611 
	C481.600708,720.223022 478.600800,715.674927 475.622284,711.159302 
	C472.700256,715.347351 469.952026,719.549561 466.878540,723.498535 
	C466.149811,724.434875 464.330170,724.522156 462.556976,725.000000 
M423.087097,705.533081 
	C425.899170,705.726074 428.711243,705.919067 431.378052,706.102112 
	C429.777618,701.478882 428.326965,697.288330 426.613251,692.337891 
	C425.223206,697.088440 424.114868,700.876343 423.087097,705.533081 
z"/>
<path fill="#203E52" opacity="1.000000" stroke="none" 
	d="
M524.397705,571.178162 
	C523.793823,570.085693 523.898376,568.604980 523.211060,567.926697 
	C515.067627,559.889832 506.805908,551.972717 498.269226,543.747803 
	C497.963165,543.471436 498.052063,542.992188 498.314758,542.754883 
	C498.718689,541.344543 498.859924,540.171448 499.001221,538.998352 
	C499.001221,538.998352 499.000000,539.000000 498.999390,539.001221 
	C501.236023,539.065430 503.210327,538.650879 504.682312,541.604126 
	C505.679230,543.604248 508.737976,544.839661 511.118011,545.834900 
	C516.745483,548.188049 522.774475,549.763000 525.317749,556.356628 
	C525.708496,557.369690 527.269775,558.375671 528.430298,558.577942 
	C538.765198,560.379272 545.166565,567.435486 551.506592,574.938171 
	C554.640686,578.647034 558.855774,581.434875 562.530701,584.696960 
	C564.674683,586.599976 567.292908,588.278442 568.688599,590.651428 
	C571.757812,595.869751 575.544312,599.696655 581.393433,601.860596 
	C584.223206,602.907471 587.318420,605.222534 588.696289,607.812927 
	C592.022034,614.065613 599.157471,614.636230 603.625305,619.052246 
	C608.494141,623.864685 614.230713,623.916504 620.071167,620.801331 
	C621.025513,620.292175 621.673157,619.208008 622.750488,618.187866 
	C626.205261,627.067810 621.597717,635.937866 611.815613,640.163879 
	C603.561035,643.729919 595.334045,641.497131 586.377747,632.197388 
	C572.950439,618.255188 559.509216,604.322205 545.833496,590.625305 
	C539.079285,583.860657 531.787048,577.633240 524.397705,571.178162 
z"/>
<path fill="#25455C" opacity="1.000000" stroke="none" 
	d="
M441.670563,349.224518 
	C438.919128,355.197296 439.994019,360.531189 442.606628,366.899536 
	C445.793518,374.667572 449.831177,381.344818 455.516754,387.327332 
	C463.248779,395.463257 470.760254,403.808350 478.437805,411.996735 
	C480.188171,413.863525 482.272034,415.413452 484.123230,417.191620 
	C485.159607,418.187134 486.130920,419.284363 486.946655,420.463684 
	C487.499481,421.262939 487.465698,422.634399 488.147888,423.151367 
	C493.514221,427.217987 495.093872,433.724335 498.701660,438.873138 
	C500.373383,441.258911 504.008514,442.363037 506.881256,443.791321 
	C511.277588,445.977203 513.891724,449.052246 515.245667,454.072235 
	C516.524170,458.812500 518.541992,463.567627 523.494324,466.497192 
	C526.231384,468.116272 527.999573,471.373077 530.454590,473.417145 
	C532.592346,475.009552 534.748535,476.577850 536.862488,478.201263 
	C538.881042,479.751465 540.865479,481.346710 542.846436,482.945038 
	C544.626099,484.380890 546.479187,485.745117 548.124756,487.323456 
	C551.079041,490.156921 552.988037,493.441956 557.939148,494.691254 
	C561.810974,495.668182 565.350647,500.739258 567.537659,504.799316 
	C569.545227,508.526337 571.580261,511.392792 575.380310,513.271973 
	C577.731812,514.434814 581.779785,515.155823 578.804443,519.699036 
	C578.470886,520.208313 580.729797,522.820618 582.160706,524.005798 
	C586.810486,527.856812 590.726562,532.126953 591.960693,538.669922 
	C588.242676,535.488037 584.516174,531.942078 580.851379,528.333557 
	C561.618835,509.396393 542.363770,490.481842 523.192444,471.482880 
	C509.453766,457.867615 495.785645,444.180145 482.179932,430.431976 
	C473.931274,422.097015 465.969696,413.476776 457.677551,405.186340 
	C450.938721,398.448944 443.783051,392.128784 437.033661,385.401459 
	C432.296936,380.680145 427.901306,376.115692 427.811981,368.237579 
	C427.708008,359.066315 433.515137,351.867615 441.670563,349.224518 
z"/>
<path fill="#FFFFFF" opacity="1.000000" stroke="none" 
	d="
M376.703430,685.624329 
	C378.855408,678.000000 378.855408,677.995056 386.033020,678.002136 
	C389.693665,678.005737 393.354309,678.028992 397.014893,678.054565 
	C397.157654,678.055542 397.299591,678.172180 398.000000,678.481079 
	C398.000000,689.475952 398.000000,700.725952 398.000000,711.975952 
	C398.000000,725.316711 397.999969,725.317749 384.511658,724.977844 
	C384.197876,724.969910 383.886658,724.861084 382.826385,724.651489 
	C382.826385,716.562073 382.826385,708.314575 382.826385,700.067078 
	C382.551575,700.067078 382.276764,700.067078 382.001953,700.067078 
	C380.025299,704.299316 377.433319,708.364258 376.226440,712.805664 
	C374.687073,718.470581 370.610565,715.596252 367.773621,715.755249 
	C366.264526,715.839905 363.937775,713.727234 363.152679,712.055664 
	C360.617523,706.657959 358.626129,701.004883 355.960754,694.278015 
	C355.960754,705.196350 355.960754,714.895447 355.960754,724.793152 
	C351.556335,724.793152 347.489471,724.793152 343.210693,724.793152 
	C343.210693,709.242126 343.210693,693.853027 343.210693,678.231628 
	C349.085205,678.231628 354.847351,678.231628 360.371918,678.231628 
	C365.125092,684.270081 365.140350,692.819763 370.506104,698.513245 
	C372.764709,693.736023 374.606537,689.840271 376.703430,685.624329 
z"/>
<path fill="#3FA7D0" opacity="1.000000" stroke="none" 
	d="
M580.001892,463.149384 
	C575.016846,458.062408 570.027710,452.979492 565.048767,447.886536 
	C563.048950,445.840973 561.071594,443.773468 559.383667,441.223541 
	C562.147278,438.192383 564.611206,435.653625 567.345825,432.945068 
	C568.754272,431.544220 569.892029,430.313171 571.337158,428.945496 
	C580.767456,419.894104 589.890320,410.979370 599.050659,402.413788 
	C601.755981,404.489807 605.441589,408.305084 606.917236,407.585876 
	C613.689148,404.285370 618.390808,405.161530 623.797241,410.561615 
	C625.584839,412.347076 627.157349,413.192169 626.833740,416.112549 
	C622.019348,421.235626 617.346008,426.038055 612.401245,431.010284 
	C606.714478,436.777435 601.299072,442.374786 595.679871,448.223541 
	C590.317993,453.366394 585.159973,458.257874 580.001892,463.149384 
z"/>
<path fill="#385971" opacity="1.000000" stroke="none" 
	d="
M662.942688,379.011353 
	C663.722839,378.414795 664.573303,377.890594 665.272522,377.210846 
	C675.040527,367.715454 690.609619,370.614624 696.133362,383.137390 
	C698.861877,389.323242 699.302124,396.439331 694.935852,401.365814 
	C685.117676,412.443604 674.217773,422.562561 663.236206,432.748322 
	C659.247559,424.188202 655.722717,415.989288 648.906616,411.062927 
	C648.906616,405.146027 648.906616,400.024506 648.887939,394.926697 
	C648.869263,394.950439 648.870544,394.889923 649.229736,394.920959 
	C650.100830,393.989380 650.612793,393.026794 651.259155,391.759277 
	C655.243164,387.306671 659.092957,383.158997 662.942688,379.011353 
z"/>
<path fill="#4DB3D4" opacity="1.000000" stroke="none" 
	d="
M662.624146,378.843750 
	C659.092957,383.158997 655.243164,387.306671 650.976501,391.904694 
	C649.996582,393.200012 649.433594,394.044983 648.870544,394.889954 
	C648.870544,394.889923 648.869263,394.950439 648.565735,395.023132 
	C641.166382,401.994507 634.070496,408.893219 626.974670,415.791901 
	C627.157349,413.192169 625.584839,412.347076 623.797241,410.561615 
	C618.390808,405.161530 613.689148,404.285370 606.917236,407.585876 
	C605.441589,408.305084 601.755981,404.489807 599.200745,402.113739 
	C605.257690,395.350739 611.202026,389.236908 617.132019,383.102051 
	C617.117615,383.080963 617.072266,383.102325 617.366089,382.972290 
	C618.805115,381.581696 619.950317,380.321106 621.072449,379.028259 
	C621.049316,378.996002 621.050537,379.075378 621.313232,378.982788 
	C621.745667,378.581848 621.915283,378.273468 622.245361,377.708374 
	C622.614014,376.894684 622.822205,376.337708 623.030457,375.780701 
	C624.864563,374.135345 626.828918,372.612488 628.510315,370.823608 
	C635.895203,362.966522 652.772888,362.263275 658.516602,370.961426 
	C660.082581,373.332947 661.058777,376.093933 662.624146,378.843750 
z"/>
<path fill="#1F7EB7" opacity="1.000000" stroke="none" 
	d="
M458.954468,581.980408 
	C450.103210,590.872986 441.243286,599.757019 432.411072,608.668457 
	C431.268036,609.821716 430.267914,611.116577 429.085754,612.666992 
	C427.536255,613.979309 425.847198,614.739441 424.709137,615.997925 
	C414.861420,626.887817 395.488312,625.368042 389.358795,611.120483 
	C389.040588,610.286621 388.726410,609.300232 389.061707,608.966675 
	C400.769165,597.319336 412.537842,585.733459 424.746277,574.316101 
	C427.710022,580.815430 430.589966,583.195435 435.665863,581.749329 
	C439.953613,580.527771 443.411957,581.426331 446.985352,583.464905 
	C448.646027,584.412292 450.443848,585.119263 452.709137,586.184204 
	C452.882751,581.032043 455.117493,579.984619 458.954468,581.980408 
z"/>
<path fill="#305269" opacity="1.000000" stroke="none" 
	d="
M626.833740,416.112549 
	C634.070496,408.893219 641.166382,401.994507 648.584412,394.999390 
	C648.906616,400.024506 648.906616,405.146027 648.906616,411.062927 
	C655.722717,415.989288 659.247559,424.188202 662.876221,432.760101 
	C662.724670,433.565735 662.411255,434.036102 661.641907,434.762207 
	C660.876160,435.738312 660.566284,436.458771 660.256470,437.179199 
	C651.807007,445.580139 643.357483,453.981049 634.508057,462.056671 
	C633.225647,459.476013 632.481812,457.152649 631.419006,454.985718 
	C630.488708,453.089020 629.275574,451.314270 628.046387,449.585907 
	C626.982666,448.090240 625.737915,446.720856 624.542542,445.321899 
	C623.049988,443.575226 621.475281,441.896667 620.026855,440.114868 
	C617.538452,437.053558 615.120300,433.935028 612.672668,430.840485 
	C617.346008,426.038055 622.019348,421.235626 626.833740,416.112549 
z"/>
<path fill="#25455C" opacity="1.000000" stroke="none" 
	d="
M604.051331,551.400269 
	C604.407837,551.046082 604.958130,551.115295 605.390503,550.921387 
	C610.597900,548.586670 610.654114,548.618652 611.036133,554.581726 
	C611.067627,555.072876 611.200439,555.557678 611.427795,556.850952 
	C613.199646,556.850952 615.109192,557.029053 616.974060,556.816223 
	C621.726685,556.273865 625.717224,558.813232 627.580322,562.985168 
	C629.853699,568.075928 634.589355,569.767700 639.685608,571.068176 
	C645.758789,572.618042 652.014587,574.119019 655.644470,580.155457 
	C656.205139,581.087830 657.172180,582.270630 658.093506,582.412354 
	C664.751831,583.436035 668.283630,588.360840 672.189758,593.009399 
	C673.627930,594.720886 675.737427,595.967834 677.728149,597.095886 
	C682.837341,599.991150 688.051575,602.700989 693.461731,605.613037 
	C694.193542,604.329285 694.999573,602.915344 695.954712,601.175049 
	C697.706726,606.520447 693.704407,609.953491 690.250427,612.647400 
	C681.185242,619.717712 671.382812,618.773987 662.989502,610.536743 
	C646.988220,594.833069 631.518982,578.588074 615.764038,562.631836 
	C612.038025,558.858215 608.055115,555.338196 604.051331,551.400269 
z"/>
<path fill="#25455C" opacity="1.000000" stroke="none" 
	d="
M617.146423,383.123108 
	C611.202026,389.236908 605.257690,395.350739 599.163208,401.764618 
	C589.890320,410.979370 580.767456,419.894104 571.327271,428.510620 
	C571.533997,423.335571 569.442505,420.242889 565.752319,416.793243 
	C560.121216,411.529083 553.821899,406.316467 551.753784,398.120636 
	C551.525208,397.214569 549.848206,396.674011 548.842957,395.963928 
	C555.677612,389.384033 562.512329,382.804108 569.821777,376.411591 
	C570.846558,377.600342 571.866211,378.599030 571.872009,379.603516 
	C571.916565,387.392090 577.278748,390.405151 583.516174,391.518005 
	C591.441284,392.932037 599.219299,392.128113 606.359985,387.366821 
	C609.501831,385.271912 613.523987,384.497223 617.146423,383.123108 
z"/>
<path fill="#FFFFFF" opacity="1.000000" stroke="none" 
	d="
M676.265869,685.764832 
	C677.520081,687.639282 678.509460,689.253296 679.978149,691.649292 
	C683.609253,679.766541 691.111206,675.191162 703.367188,678.873108 
	C700.937378,682.518127 698.483826,686.289307 695.934509,689.994629 
	C693.848022,693.027283 691.216736,695.781372 689.693176,699.061279 
	C689.011719,700.528137 689.959961,703.299133 691.016235,704.928894 
	C695.012390,711.094482 699.362183,717.030518 703.553040,723.070984 
	C703.800720,723.427979 703.814941,723.946960 704.106323,724.999329 
	C699.258240,724.999329 694.680237,725.116028 690.117554,724.903564 
	C689.177002,724.859680 688.054932,723.755737 687.425354,722.854736 
	C684.758606,719.038574 682.246155,715.114563 679.511597,710.979553 
	C676.860718,714.986755 674.436584,718.949097 671.669739,722.655579 
	C670.818237,723.796265 669.074280,724.780457 667.662659,724.894836 
	C663.875610,725.201843 660.047302,724.999634 654.354187,724.999634 
	C660.244385,716.130066 665.432190,708.318359 670.451660,700.759949 
	C665.446350,693.434143 660.477295,686.161316 654.992981,678.134338 
	C663.789673,678.105042 672.190125,675.425781 676.265869,685.764832 
z"/>
<path fill="#FFFFFF" opacity="1.000000" stroke="none" 
	d="
M561.552246,679.000793 
	C569.884705,685.235168 571.785767,691.104553 568.875854,700.349304 
	C567.619446,704.341125 561.347900,708.910034 556.867432,708.985291 
	C552.742065,709.054626 548.614685,709.000000 544.102112,709.000000 
	C544.102112,714.354248 544.102112,719.431091 544.102112,724.747681 
	C538.986877,724.747681 534.253601,724.747681 529.258179,724.747681 
	C529.258179,709.342834 529.258179,693.957642 529.258179,677.565979 
	C539.878174,678.039734 550.508789,678.514038 561.552246,679.000793 
M549.007996,688.020142 
	C547.427124,688.020142 545.846252,688.020142 544.188049,688.020142 
	C544.188049,691.890198 544.188049,695.298950 544.188049,699.176880 
	C548.298462,698.311829 553.210510,699.783936 554.892761,694.536194 
	C556.177307,690.528931 552.777222,689.370544 549.007996,688.020142 
z"/>
<path fill="#FFFFFF" opacity="1.000000" stroke="none" 
	d="
M631.003845,725.000000 
	C625.861694,725.000000 621.218750,725.000000 616.288818,725.000000 
	C616.288818,709.388306 616.288818,693.987915 616.288818,678.292969 
	C627.269958,678.292969 638.338989,678.292969 649.705200,678.292969 
	C649.705200,681.263367 649.705200,684.338013 649.705200,687.818359 
	C643.410095,687.818359 636.997131,687.818359 630.294434,687.818359 
	C630.294434,690.277405 630.294434,692.347229 630.294434,694.811523 
	C636.230896,694.811523 642.319580,694.811523 648.700684,694.811523 
	C648.700684,698.254456 648.700684,701.329346 648.700684,704.806274 
	C642.752319,704.806274 636.672913,704.806274 630.298340,704.806274 
	C630.298340,708.256226 630.298340,711.331116 630.298340,715.000000 
	C635.269897,715.000000 640.367676,714.999451 645.465454,715.000183 
	C652.033386,715.001099 652.032776,715.001526 652.000671,721.508972 
	C651.995850,722.488770 652.000000,723.468506 652.000000,725.000000 
	C645.048645,725.000000 638.275879,725.000000 631.003845,725.000000 
z"/>
<path fill="#305269" opacity="1.000000" stroke="none" 
	d="
M617.132019,383.102051 
	C613.523987,384.497223 609.501831,385.271912 606.359985,387.366821 
	C599.219299,392.128113 591.441284,392.932037 583.516174,391.518005 
	C577.278748,390.405151 571.916565,387.392090 571.872009,379.603516 
	C571.866211,378.599030 570.846558,377.600342 570.124207,376.261536 
	C575.398621,369.997131 580.845337,364.070160 586.643372,358.446167 
	C588.629700,364.293274 598.612305,373.084381 604.416870,372.803619 
	C610.807556,372.494476 615.963501,374.654663 620.988831,378.261993 
	C621.017822,378.714203 621.034180,378.894775 621.050537,379.075378 
	C621.050537,379.075378 621.049316,378.996002 620.684570,379.009644 
	C619.237366,380.382996 618.154846,381.742676 617.072266,383.102356 
	C617.072266,383.102325 617.117615,383.080963 617.132019,383.102051 
z"/>
<path fill="#FFFFFF" opacity="1.000000" stroke="none" 
	d="
M591.003601,725.000000 
	C585.862732,725.000000 581.221008,725.000000 576.290466,725.000000 
	C576.290466,709.395691 576.290466,693.999084 576.290466,678.300476 
	C580.587341,678.300476 584.991516,678.300476 589.789429,678.300476 
	C589.789429,690.247192 589.789429,702.317810 589.789429,715.000000 
	C595.918213,715.000000 601.686584,715.222046 607.427979,714.923950 
	C611.430359,714.716187 612.115356,716.506592 612.093201,719.972168 
	C612.071472,723.359070 611.561096,725.310486 607.484436,725.074951 
	C602.173523,724.768005 596.831421,725.000000 591.003601,725.000000 
z"/>
<path fill="#2A4A61" opacity="1.000000" stroke="none" 
	d="
M612.401245,431.010284 
	C615.120300,433.935028 617.538452,437.053558 620.026855,440.114868 
	C621.475281,441.896667 623.049988,443.575226 624.542542,445.321899 
	C625.737915,446.720856 626.982666,448.090240 628.046387,449.585907 
	C629.275574,451.314270 630.488708,453.089020 631.419006,454.985718 
	C632.481812,457.152649 633.225647,459.476013 634.176270,462.181519 
	C627.380188,469.668121 620.515930,476.704590 613.088989,483.689331 
	C612.920288,482.357269 612.974060,480.794586 613.763977,479.842865 
	C618.626038,473.984863 617.922791,468.558319 611.972961,463.888184 
	C609.434753,461.895935 607.626526,459.000641 605.301453,456.703094 
	C602.258118,453.695709 599.031494,450.873840 595.883667,447.972168 
	C601.299072,442.374786 606.714478,436.777435 612.401245,431.010284 
z"/>
<path fill="#203E52" opacity="1.000000" stroke="none" 
	d="
M595.679871,448.223541 
	C599.031494,450.873840 602.258118,453.695709 605.301453,456.703094 
	C607.626526,459.000641 609.434753,461.895935 611.972961,463.888184 
	C617.922791,468.558319 618.626038,473.984863 613.763977,479.842865 
	C612.974060,480.794586 612.920288,482.357269 612.798584,483.850067 
	C611.671753,485.880768 610.272522,487.699036 607.992065,490.662506 
	C598.670837,481.609924 589.471619,472.675812 580.137085,463.445557 
	C585.159973,458.257874 590.317993,453.366394 595.679871,448.223541 
z"/>
<path fill="#385971" opacity="1.000000" stroke="none" 
	d="
M620.976196,377.990326 
	C615.963501,374.654663 610.807556,372.494476 604.416870,372.803619 
	C598.612305,373.084381 588.629700,364.293274 586.993347,358.377258 
	C588.820190,356.344543 590.720459,354.755646 592.463318,353.009613 
	C598.079529,347.382904 611.253479,347.544281 617.310425,352.570465 
	C624.870117,358.843750 624.976013,366.524933 623.058228,375.373962 
	C622.822205,376.337708 622.614014,376.894684 621.967468,377.715698 
	C621.344849,377.983215 621.160522,377.986755 620.976196,377.990326 
z"/>
<path fill="#FFFFFF" opacity="1.000000" stroke="none" 
	d="
M724.000000,711.990540 
	C724.000000,716.466553 724.000000,720.444031 724.000000,724.709900 
	C719.058594,724.709900 714.319824,724.709900 709.287415,724.709900 
	C709.287415,709.385803 709.287415,693.983337 709.287415,678.289612 
	C713.942383,678.289612 718.681152,678.289612 724.000000,678.289612 
	C724.000000,689.302307 724.000000,700.397156 724.000000,711.990540 
z"/>
<path fill="#FFFFFF" opacity="1.000000" stroke="none" 
	d="
M505.000000,698.000244 
	C505.000000,691.191284 505.000000,684.882202 505.000000,678.287354 
	C509.948792,678.287354 514.687073,678.287354 519.715149,678.287354 
	C519.715149,693.619202 519.715149,709.021362 519.715149,724.712585 
	C515.051270,724.712585 510.313019,724.712585 505.000000,724.712585 
	C505.000000,716.026733 505.000000,707.263489 505.000000,698.000244 
z"/>
<path fill="#173548" opacity="1.000000" stroke="none" 
	d="
M567.075073,433.114868 
	C564.611206,435.653625 562.147278,438.192383 559.380249,440.869720 
	C550.440735,431.858917 541.804260,422.709564 532.369019,412.713989 
	C535.437439,409.467346 539.348450,405.329224 543.600098,401.445251 
	C545.782898,405.454834 547.010620,409.718903 549.604492,412.851807 
	C554.001221,418.162170 559.355835,422.668732 564.096802,427.711517 
	C565.461487,429.162964 566.102356,431.294891 567.075073,433.114868 
z"/>
<path fill="#203E52" opacity="1.000000" stroke="none" 
	d="
M567.345764,432.945068 
	C566.102356,431.294891 565.461487,429.162964 564.096802,427.711517 
	C559.355835,422.668732 554.001221,418.162170 549.604492,412.851807 
	C547.010620,409.718903 545.782898,405.454834 543.894165,401.291473 
	C543.847534,400.883484 543.892334,400.901276 544.144653,400.821259 
	C544.685608,400.547150 544.861877,400.279175 544.925903,399.937256 
	C544.925903,399.937256 544.989441,400.000977 545.200439,399.864685 
	C545.585327,399.441437 545.759094,399.154480 545.932922,398.867554 
	C546.731995,397.995178 547.531067,397.122833 548.586548,396.107239 
	C549.848206,396.674011 551.525208,397.214569 551.753784,398.120636 
	C553.821899,406.316467 560.121216,411.529083 565.752319,416.793243 
	C569.442505,420.242889 571.533997,423.335571 571.019897,428.647247 
	C569.892029,430.313171 568.754272,431.544220 567.345764,432.945068 
z"/>
<path fill="#25455C" opacity="1.000000" stroke="none" 
	d="
M592.058716,539.343750 
	C592.944092,539.810913 593.951599,540.562561 594.938965,541.695557 
	C594.006165,541.260681 593.093445,540.444519 592.058716,539.343750 
z"/>
<path fill="#385971" opacity="1.000000" stroke="none" 
	d="
M660.519592,437.070129 
	C660.566284,436.458771 660.876160,435.738312 661.515259,435.017914 
	C661.490540,435.665649 661.136658,436.313354 660.519592,437.070129 
z"/>
<path fill="#4DB3D4" opacity="1.000000" stroke="none" 
	d="
M482.419922,615.081482 
	C482.485260,614.297974 482.917175,613.537476 483.703522,612.915649 
	C483.634125,613.737793 483.210327,614.421082 482.419922,615.081482 
z"/>
<path fill="#25455C" opacity="1.000000" stroke="none" 
	d="
M602.036255,549.338867 
	C602.582458,549.516602 603.234314,549.968567 603.896484,550.756653 
	C603.318481,550.599548 602.730225,550.106384 602.036255,549.338867 
z"/>
<path fill="#4DB3D4" opacity="1.000000" stroke="none" 
	d="
M476.343811,619.849731 
	C476.567200,619.625854 477.087311,619.342590 477.909149,619.029419 
	C477.687439,619.263123 477.163971,619.526733 476.343811,619.849731 
z"/>
<path fill="#4DB3D4" opacity="1.000000" stroke="none" 
	d="
M504.392090,592.976318 
	C504.154297,592.486267 504.238373,591.932861 504.609497,591.208252 
	C504.835663,591.662354 504.774811,592.287659 504.392090,592.976318 
z"/>
<path fill="#4DB3D4" opacity="1.000000" stroke="none" 
	d="
M480.278229,617.207092 
	C480.102112,616.885193 480.196808,616.424927 480.676086,616.002319 
	C480.890137,616.382935 480.719604,616.725769 480.278229,617.207092 
z"/>
<path fill="#4DB3D4" opacity="1.000000" stroke="none" 
	d="
M481.328308,616.033813 
	C481.154114,615.654053 481.260315,615.249939 481.711670,614.948608 
	C481.907471,615.370667 481.758118,615.690063 481.328308,616.033813 
z"/>
<path fill="#4DB3D4" opacity="1.000000" stroke="none" 
	d="
M484.331573,613.031982 
	C484.153320,612.649719 484.254395,612.243042 484.705872,611.944336 
	C484.907806,612.370789 484.759369,612.689209 484.331573,613.031982 
z"/>
<path fill="#4DB3D4" opacity="1.000000" stroke="none" 
	d="
M485.331787,612.032593 
	C485.153320,611.651123 485.254456,611.245850 485.705627,610.946655 
	C485.907593,611.371399 485.759491,611.690063 485.331787,612.032593 
z"/>
<path fill="#4DB3D4" opacity="1.000000" stroke="none" 
	d="
M486.332336,611.032410 
	C486.154053,610.650696 486.255371,610.245728 486.706055,609.946899 
	C486.907593,610.371765 486.759766,610.690430 486.332336,611.032410 
z"/>
<path fill="#4DB3D4" opacity="1.000000" stroke="none" 
	d="
M487.332642,610.032471 
	C487.154541,609.651184 487.256134,609.246826 487.706543,608.947876 
	C487.907654,609.371948 487.759979,609.690674 487.332642,610.032471 
z"/>
<path fill="#4DB3D4" opacity="1.000000" stroke="none" 
	d="
M502.327820,595.029297 
	C502.151093,594.647705 502.252045,594.238586 502.704559,593.940735 
	C502.905914,594.368591 502.755707,594.685181 502.327820,595.029297 
z"/>
<path fill="#4DB3D4" opacity="1.000000" stroke="none" 
	d="
M488.332886,609.032837 
	C488.153961,608.646973 488.254608,608.238525 488.705017,607.942505 
	C488.907288,608.373352 488.759857,608.691772 488.332886,609.032837 
z"/>
<path fill="#4DB3D4" opacity="1.000000" stroke="none" 
	d="
M489.334229,608.032776 
	C489.153442,607.643494 489.252136,607.232117 489.702881,606.938232 
	C489.907867,607.373962 489.760803,607.692383 489.334229,608.032776 
z"/>
<path fill="#4DB3D4" opacity="1.000000" stroke="none" 
	d="
M490.335144,607.033203 
	C490.152679,606.642883 490.249817,606.230835 490.701050,605.937134 
	C490.908356,606.374207 490.761566,606.692749 490.335144,607.033203 
z"/>
<path fill="#173548" opacity="1.000000" stroke="none" 
	d="
M545.705811,398.980652 
	C545.759094,399.154480 545.585327,399.441437 545.174805,399.828308 
	C545.118347,399.650085 545.298523,399.371918 545.705811,398.980652 
z"/>
<path fill="#173548" opacity="1.000000" stroke="none" 
	d="
M544.697083,400.026428 
	C544.861877,400.279175 544.685608,400.547150 544.167236,400.829315 
	C544.003113,400.576385 544.179993,400.309113 544.697083,400.026428 
z"/>
<path fill="#25455C" opacity="1.000000" stroke="none" 
	d="
M595.006348,542.299683 
	C595.199646,542.238831 595.477722,542.421936 595.849609,542.842529 
	C595.659363,542.901245 595.375244,542.722412 595.006348,542.299683 
z"/>
<path fill="#25455C" opacity="1.000000" stroke="none" 
	d="
M596.008301,543.305542 
	C596.204407,543.257080 596.488403,543.458069 596.855591,543.914062 
	C596.657959,543.964294 596.377014,543.759644 596.008301,543.305542 
z"/>
<path fill="#25455C" opacity="1.000000" stroke="none" 
	d="
M597.911011,545.321533 
	C598.100830,545.251343 598.406250,545.422363 598.818115,545.840271 
	C598.625305,545.912292 598.325928,545.737488 597.911011,545.321533 
z"/>
<path fill="#25455C" opacity="1.000000" stroke="none" 
	d="
M598.986145,546.329712 
	C599.187866,546.259949 599.466370,546.437622 599.836670,546.851868 
	C599.639893,546.918030 599.351440,546.747620 598.986145,546.329712 
z"/>
<path fill="#25455C" opacity="1.000000" stroke="none" 
	d="
M599.996460,547.318420 
	C600.193665,547.251282 600.473206,547.429749 600.847900,547.844299 
	C600.655029,547.908264 600.366882,547.736145 599.996460,547.318420 
z"/>
<path fill="#25455C" opacity="1.000000" stroke="none" 
	d="
M601.014404,548.297974 
	C601.202271,548.238281 601.481750,548.418274 601.857788,548.834106 
	C601.671570,548.892578 601.388733,548.715027 601.014404,548.297974 
z"/>
<path fill="#4DB3D4" opacity="1.000000" stroke="none" 
	d="
M491.335938,606.032898 
	C491.152924,605.643799 491.250336,605.232422 491.702515,604.936157 
	C491.910309,605.371033 491.763306,605.690857 491.335938,606.032898 
z"/>
<path fill="#4DB3D4" opacity="1.000000" stroke="none" 
	d="
M503.331451,594.032410 
	C503.151123,593.645081 503.250061,593.233826 503.702393,592.938110 
	C503.907440,593.372009 503.759094,593.690186 503.331451,594.032410 
z"/>
<path fill="#4DB3D4" opacity="1.000000" stroke="none" 
	d="
M501.327209,596.029480 
	C501.151489,595.649353 501.253967,595.241455 501.706665,594.941895 
	C501.906403,595.367371 501.755920,595.684509 501.327209,596.029480 
z"/>
<path fill="#4DB3D4" opacity="1.000000" stroke="none" 
	d="
M500.326874,597.029663 
	C500.152466,596.652161 500.256561,596.246948 500.708984,595.945435 
	C500.906616,596.366699 500.756012,596.684326 500.326874,597.029663 
z"/>
<path fill="#4DB3D4" opacity="1.000000" stroke="none" 
	d="
M499.327515,598.029663 
	C499.152985,597.654602 499.257263,597.252197 499.709412,596.949097 
	C499.906982,597.366394 499.756622,597.684326 499.327515,598.029663 
z"/>
<path fill="#4DB3D4" opacity="1.000000" stroke="none" 
	d="
M498.327087,599.029480 
	C498.152649,598.654480 498.256805,598.251831 498.708923,597.949036 
	C498.906555,598.366516 498.756134,598.684204 498.327087,599.029480 
z"/>
<path fill="#4DB3D4" opacity="1.000000" stroke="none" 
	d="
M497.326965,600.028442 
	C497.152649,599.654724 497.256439,599.252625 497.708618,598.949463 
	C497.906342,599.365601 497.755707,599.682800 497.326965,600.028442 
z"/>
<path fill="#4DB3D4" opacity="1.000000" stroke="none" 
	d="
M496.326904,601.028198 
	C496.153137,600.653076 496.257294,600.249634 496.709076,599.947510 
	C496.906097,600.365845 496.755463,600.682800 496.326904,601.028198 
z"/>
<path fill="#4DB3D4" opacity="1.000000" stroke="none" 
	d="
M495.328979,602.029541 
	C495.154327,601.653992 495.258423,601.251648 495.709564,600.949219 
	C495.906982,601.367004 495.757355,601.684937 495.328979,602.029541 
z"/>
<path fill="#4DB3D4" opacity="1.000000" stroke="none" 
	d="
M494.331970,603.031555 
	C494.154663,602.652100 494.257019,602.248352 494.707794,601.947693 
	C494.908051,602.369568 494.759857,602.688477 494.331970,603.031555 
z"/>
<path fill="#4DB3D4" opacity="1.000000" stroke="none" 
	d="
M493.332336,604.034607 
	C493.151031,603.651489 493.250519,603.246155 493.702881,602.946655 
	C493.908264,603.372437 493.760712,603.692383 493.332336,604.034607 
z"/>
<path fill="#4DB3D4" opacity="1.000000" stroke="none" 
	d="
M492.326904,605.026978 
	C492.152344,604.651062 492.254181,604.244934 492.706360,603.944824 
	C492.905579,604.366211 492.754456,604.681519 492.326904,605.026978 
z"/>
<path fill="#2487BF" opacity="1.000000" stroke="none" 
	d="
M459.184509,581.887451 
	C455.117493,579.984619 452.882751,581.032043 452.709137,586.184204 
	C450.443848,585.119263 448.646027,584.412292 446.985352,583.464905 
	C443.411957,581.426331 439.953613,580.527771 435.665863,581.749329 
	C430.589966,583.195435 427.710022,580.815430 425.040649,574.152771 
	C438.526215,560.260864 452.183502,546.727173 465.793030,533.145630 
	C469.189148,529.756470 472.431335,526.213074 475.907654,522.459839 
	C477.532379,523.121948 479.203522,523.851501 480.417938,525.045532 
	C485.095367,529.644287 489.626648,534.391663 494.702301,539.442932 
	C496.145477,540.865540 497.098755,541.928894 498.052063,542.992188 
	C498.052063,542.992188 497.963165,543.471436 497.915527,543.710449 
	C486.453186,555.208374 475.038452,566.467163 463.096771,577.971802 
	C462.285583,578.419739 462.102539,578.690308 462.020660,579.029297 
	C462.020660,579.029297 462.000000,579.000000 461.785065,579.111816 
	C461.389862,579.498291 461.209595,579.773010 461.029327,580.047729 
	C461.029327,580.047729 461.000000,580.000122 460.792419,580.110291 
	C460.393127,580.486755 460.201416,580.753052 460.009705,581.019409 
	C459.900726,581.346497 459.702332,581.604858 459.184509,581.887451 
z"/>
<path fill="#1F7EB7" opacity="1.000000" stroke="none" 
	d="
M460.251404,580.937012 
	C460.201416,580.753052 460.393127,580.486755 460.816406,580.124512 
	C460.862976,580.303894 460.678040,580.579224 460.251404,580.937012 
z"/>
<path fill="#1F7EB7" opacity="1.000000" stroke="none" 
	d="
M462.253448,578.934631 
	C462.102539,578.690308 462.285583,578.419739 462.797089,578.115112 
	C462.845001,578.288330 462.665619,578.564148 462.253448,578.934631 
z"/>
<path fill="#1F7EB7" opacity="1.000000" stroke="none" 
	d="
M461.259552,579.946533 
	C461.209595,579.773010 461.389862,579.498291 461.799774,579.121826 
	C461.849518,579.295227 461.669647,579.570251 461.259552,579.946533 
z"/>
<path fill="#25455C" opacity="1.000000" stroke="none" 
	d="
M498.314758,542.754883 
	C497.098755,541.928894 496.145477,540.865540 495.037354,539.544678 
	C496.030731,539.171143 497.178894,539.055115 498.664124,538.968750 
	C498.859924,540.171448 498.718689,541.344543 498.314758,542.754883 
z"/>
<path fill="#000000" opacity="1.000000" stroke="none" 
	d="
M423.046814,705.098633 
	C424.114868,700.876343 425.223206,697.088440 426.613251,692.337891 
	C428.326965,697.288330 429.777618,701.478882 431.378052,706.102112 
	C428.711243,705.919067 425.899170,705.726074 423.046814,705.098633 
z"/>
<path fill="#305269" opacity="1.000000" stroke="none" 
	d="
M649.229736,394.920959 
	C649.433594,394.044983 649.996582,393.200012 650.842163,392.209625 
	C650.612793,393.026794 650.100830,393.989380 649.229736,394.920959 
z"/>
<path fill="#25455C" opacity="1.000000" stroke="none" 
	d="
M617.366089,382.972321 
	C618.154846,381.742676 619.237366,380.382996 620.707764,379.041931 
	C619.950317,380.321106 618.805115,381.581696 617.366089,382.972321 
z"/>
<path fill="#25455C" opacity="1.000000" stroke="none" 
	d="
M620.988831,378.261993 
	C621.160522,377.986755 621.344849,377.983215 621.807068,377.972382 
	C621.915283,378.273468 621.745667,378.581848 621.313232,378.982788 
	C621.034180,378.894775 621.017822,378.714203 620.988831,378.261993 
z"/>
<path fill="#000000" opacity="1.000000" stroke="none" 
	d="
M549.415283,688.157471 
	C552.777222,689.370544 556.177307,690.528931 554.892761,694.536194 
	C553.210510,699.783936 548.298462,698.311829 544.188049,699.176880 
	C544.188049,695.298950 544.188049,691.890198 544.188049,688.020142 
	C545.846252,688.020142 547.427124,688.020142 549.415283,688.157471 
z"/>
</svg>